<?xml version="1.0" encoding="utf-8"?>
<!-- Svg Vector Icons : http://www.onlinewebfonts.com/icon -->
<!DOCTYPE svg PUBLIC "-//W3C//DTD SVG 1.1//EN" "http://www.w3.org/Graphics/SVG/1.1/DTD/svg11.dtd">
<svg version="1.1" xmlns="http://www.w3.org/2000/svg" xmlns:xlink="http://www.w3.org/1999/xlink" fill="#000000" height="24" width="24" viewBox="0 0 1000 1000" enable-background="new 0 0 0 0" xml:space="preserve">
<metadata> Svg Vector Icons : http://www.onlinewebfonts.com/icon </metadata>
<g><path d="M990,482.2L774.9,693.8v-93.1H528.4V371.9h246.6V270.6L990,482.2L990,482.2z M664.4,194.4H465.6v-73.3h196.6c36.2,0,65.5,33.9,65.5,75.7v131.3h-63.4L664.4,194.4L664.4,194.4z M341.8,958.7L54.2,827.7c-24.5,0-44.2-29.3-44.2-65.5V237.8c0-36.2,19.7-65.5,44.2-65.5l287.6-131c24.4,0,44.3,29.3,44.3,65.5v786.4C386.1,929.4,366.2,958.7,341.8,958.7L341.8,958.7z M269,423.5c-30.1,0-54.6,24.5-54.6,54.6c0,30.2,24.5,54.6,54.6,54.6c30.2,0,54.6-24.4,54.6-54.6C323.6,448,299.2,423.5,269,423.5L269,423.5z M664.4,633.4h63.4v169.7c0,41.9-29.3,75.8-65.5,75.8H465.6v-73.3h198.8V633.4L664.4,633.4z"/></g>
</svg>